<?xml version="1.0" encoding="UTF-8"?>
<svg version="1.1" xmlns="http://www.w3.org/2000/svg" width="280" height="280">
<path d="M0 0 C1.27294418 -0.00570007 2.54588837 -0.01140015 3.85740662 -0.01727295 C6.5442153 -0.02667051 9.23091389 -0.03359271 11.91772461 -0.03710938 C15.93294521 -0.04358592 19.94778999 -0.07776198 23.96289062 -0.109375 C58.24229445 -0.25045337 96.23265844 1.55767027 124.43359375 23.203125 C125.2121875 23.74582031 125.99078125 24.28851562 126.79296875 24.84765625 C127.60507812 25.51861328 127.60507812 25.51861328 128.43359375 26.203125 C128.43359375 26.863125 128.43359375 27.523125 128.43359375 28.203125 C129.42359375 28.533125 130.41359375 28.863125 131.43359375 29.203125 C133.00021743 31.17460649 134.41409263 33.11608447 135.80859375 35.203125 C136.36933594 36.01330078 136.36933594 36.01330078 136.94140625 36.83984375 C141.9806731 44.24342416 145.98786088 51.64650522 148.49609375 60.265625 C148.74576904 61.1097998 148.99544434 61.95397461 149.25268555 62.82373047 C152.2417281 73.40892135 154.04235865 84.30056443 155.43359375 95.203125 C155.52021271 95.87219879 155.60683167 96.54127258 155.69607544 97.23062134 C156.59857684 105.02355459 156.61602901 112.81471141 156.63671875 120.6484375 C156.63954613 121.38159054 156.6423735 122.11474358 156.64528656 122.87011337 C156.66020424 126.762208 156.66947637 130.65426638 156.67382812 134.54638672 C156.67818293 137.70926641 156.69196785 140.87186873 156.71484375 144.03466797 C156.97932931 181.37095836 156.46617371 225.97268023 128.51953125 254.375 C110.70905422 271.36700203 85.00538944 276.33890452 61.43359375 279.203125 C60.73883942 279.29158691 60.04408508 279.38004883 59.32827759 279.47119141 C51.55987646 280.36308934 43.79658466 280.3856274 35.98828125 280.40625 C35.25512821 280.40907738 34.52197517 280.41190475 33.76660538 280.41481781 C29.87451075 280.42973549 25.98245237 280.43900762 22.09033203 280.44335938 C18.92745234 280.44771418 15.76485002 280.4614991 12.60205078 280.484375 C-21.20280394 280.72384431 -58.84504011 280.38810987 -87.56640625 260.203125 C-88.37851563 259.63851563 -89.190625 259.07390625 -90.02734375 258.4921875 C-94.08813346 255.57126859 -94.08813346 255.57126859 -95.56640625 254.203125 C-95.56640625 253.543125 -95.56640625 252.883125 -95.56640625 252.203125 C-96.55640625 251.873125 -97.54640625 251.543125 -98.56640625 251.203125 C-122.712105 221.95233566 -123.94226669 181.12525532 -123.88208008 145.04003906 C-123.87892741 141.10453352 -123.90245072 137.169788 -123.92773438 133.234375 C-124.01700074 97.25665739 -122.34015321 54.37156098 -95.6015625 27.03515625 C-71.05389064 3.29311852 -32.40474109 0.11595545 0 0 Z " fill="#5944FD" transform="translate(123.56640625,-0.203125)"/>
<path d="M0 0 C9.19944703 7.54022813 14.64575632 16.32522096 19.375 27.125 C19.79579834 28.06778809 20.21659668 29.01057617 20.65014648 29.98193359 C22.00533403 33.02555561 23.34762626 36.0746084 24.6875 39.125 C25.61189764 41.22139012 26.53637736 43.31774404 27.4609375 45.4140625 C28.85585089 48.5805037 30.24898645 51.74768746 31.63793945 54.91674805 C34.57160762 61.60939035 37.54917748 68.28038103 40.5625 74.9375 C43.21806799 80.81115951 45.8042725 86.69824202 48.23828125 92.66796875 C49.49507542 95.66598179 50.79077711 98.64039302 52.10546875 101.61328125 C52.77074585 103.12281372 52.77074585 103.12281372 53.44946289 104.6628418 C54.33580431 106.67032654 55.22667619 108.67581921 56.12280273 110.67895508 C62.5212211 125.20278208 65.91001226 139.09943512 59.9453125 154.51171875 C54.76242644 165.27988886 46.47533745 171.84331336 35.51953125 176.1796875 C22.23812904 180.61292796 9.60162241 177.23066577 -3.35791016 173.54296875 C-5.38076073 172.97263255 -7.40869592 172.42371569 -9.4375 171.875 C-10.61570312 171.53984375 -11.79390625 171.2046875 -13.0078125 170.859375 C-25.00609075 168.37348637 -35.95443718 170.8745106 -47.4375 174.125 C-63.02243853 178.51367156 -77.59744458 180.69326053 -92.5 172.5625 C-102.78078434 165.80230579 -108.70682627 157.15598157 -111.3125 145.125 C-113.47556156 127.15907546 -105.6818879 112.35457291 -98.2734375 96.50390625 C-95.36396086 90.26999484 -92.57120176 83.98935674 -89.8125 77.6875 C-89.36213379 76.65971436 -88.91176758 75.63192871 -88.44775391 74.57299805 C-87.53301939 72.48410965 -86.61879591 70.3949974 -85.70507812 68.30566406 C-82.86959681 61.82939292 -80.01619061 55.36098595 -77.16503906 48.89160156 C-75.20061925 44.43087931 -73.23989996 39.96904786 -71.3125 35.4921875 C-69.67512648 31.68947104 -68.00587821 27.90316988 -66.3125 24.125 C-66.03486816 23.50028809 -65.75723633 22.87557617 -65.47119141 22.23193359 C-60.03312139 10.13942388 -53.3700017 1.85794198 -41.25390625 -3.84375 C-28.70896907 -8.53994832 -10.98745367 -7.86555724 0 0 Z " fill="#FEFEFF" transform="translate(164.3125,49.875)"/>
<path d="M0 0 C0.66 0 1.32 0 2 0 C12.92688403 23.45079625 12.92688403 23.45079625 16.64453125 33.5703125 C18.89356292 39.26094594 21.50355207 44.78745753 24.05786133 50.34619141 C28.19844918 59.3764336 32.1160647 68.49356424 35.99365234 77.63916016 C36.95000282 79.88270919 37.91901743 82.12019567 38.89453125 84.35546875 C39.1790918 85.00966797 39.46365234 85.66386719 39.75683594 86.33789062 C40.50388885 88.05294301 41.2537773 89.76675952 42.00390625 91.48046875 C43 94 43 94 43 96 C42.41734375 95.81824219 41.8346875 95.63648438 41.234375 95.44921875 C36.51318484 94.00168403 31.77593891 92.63084922 27 91.375 C26.0925 91.13523437 25.185 90.89546875 24.25 90.6484375 C2.85636576 86.37999605 -18.64481383 88.616256 -39 96 C-40.485 96.495 -40.485 96.495 -42 97 C-40.72446219 93.01472481 -39.27972669 89.20335987 -37.56640625 85.38671875 C-37.08792236 84.31631348 -36.60943848 83.2459082 -36.11645508 82.14306641 C-35.6036499 81.00272949 -35.09084473 79.86239258 -34.5625 78.6875 C-33.75009677 76.87006564 -32.93770115 75.05262781 -32.12590027 73.23492432 C-31.57104627 71.99271966 -31.01587819 70.75065523 -30.46040344 69.50872803 C-27.72401508 63.38979072 -25.01295766 57.25986613 -22.3125 51.125 C-21.86108643 50.09995361 -21.40967285 49.07490723 -20.94458008 48.01879883 C-17.62558569 40.46458231 -14.37923824 32.88085942 -11.1496582 25.28808594 C-8.34773322 18.73302424 -5.38054844 12.27031686 -2.3125 5.8359375 C-0.94333408 3.01579012 -0.94333408 3.01579012 0 0 Z " fill="#5843FF" transform="translate(139,88)"/>
</svg>
